<svg width="50" height="56" viewBox="0 0 50 56" fill="none" xmlns="http://www.w3.org/2000/svg">
<path fill-rule="evenodd" clip-rule="evenodd" d="M20.4434 25.4599C20.4434 23.3693 22.1065 21.6963 24.1315 21.6963C26.1565 21.6963 27.8196 23.3693 27.8196 25.4599C27.8196 27.5505 26.1565 29.2235 24.1315 29.2235C22.1065 29.2235 20.4434 27.5505 20.4434 25.4599ZM24.1315 20.1963C21.2543 20.1963 18.9434 22.5649 18.9434 25.4599C18.9434 28.3549 21.2543 30.7235 24.1315 30.7235C27.0087 30.7235 29.3196 28.3549 29.3196 25.4599C29.3196 22.5649 27.0087 20.1963 24.1315 20.1963ZM24.6827 32.2349C24.6452 32.232 24.6074 32.2318 24.5699 32.2346L19.9336 32.5714C19.45 32.5791 19.0347 32.7704 18.6985 33.0061C18.3586 33.2444 18.0607 33.555 17.8049 33.8565C17.5873 34.113 17.3777 34.3904 17.1892 34.6398L17.1892 34.6398L17.0917 34.7687C16.8687 35.0626 16.6829 35.2988 16.5132 35.4714C15.5416 36.4594 14.998 37.7969 14.998 39.1888V41.4456C14.998 41.8599 15.3338 42.1956 15.748 42.1956H33.5005C33.9147 42.1956 34.2505 41.8599 34.2505 41.4456V39.1888C34.2505 37.7969 33.7069 36.4594 32.7354 35.4714C32.5654 35.2985 32.3732 35.0765 32.1444 34.8121L32.1444 34.812L32.0742 34.7309C31.8228 34.4407 31.5377 34.1146 31.2366 33.8124C30.9374 33.5121 30.6002 33.2125 30.2369 32.9847C29.8847 32.764 29.4585 32.5796 28.9843 32.5714L24.6827 32.2349ZM20.0185 34.0692L24.6221 33.7347L28.8929 34.0688C28.9123 34.0704 28.9318 34.0711 28.9514 34.0711C29.0525 34.0711 29.2111 34.1121 29.4403 34.2557C29.6665 34.3975 29.912 34.6082 30.174 34.8711C30.434 35.1321 30.6884 35.4221 30.9404 35.713L31.0148 35.799C31.2348 36.0534 31.46 36.3137 31.6658 36.5231C32.3589 37.2279 32.7505 38.1866 32.7505 39.1888V40.6956H16.498V39.1888C16.498 38.1866 16.8896 37.2279 17.5827 36.5231C17.8291 36.2725 18.0688 35.9625 18.2867 35.6753L18.3912 35.5373L18.3912 35.5373C18.5806 35.2867 18.7609 35.0483 18.9487 34.827C19.1707 34.5653 19.3723 34.3656 19.5595 34.2344C19.7433 34.1055 19.8723 34.0711 19.9642 34.0711C19.9823 34.0711 20.0005 34.0705 20.0185 34.0692Z" fill="#170D04"/>
<path d="M49.25 5.9268V54.5014H0.75V0.832905L49.25 5.9268Z" stroke="#170D04" stroke-width="1.5"/>
</svg>
