<svg width="23" height="23" viewBox="0 0 23 23" fill="none" xmlns="http://www.w3.org/2000/svg">
<path d="M8.53846 19.0038C3.15385 20.5019 3.15385 16.507 1 16.0076M16.0769 22V18.1349C16.1173 17.6587 16.0479 17.18 15.8734 16.7305C15.6989 16.2811 15.4232 15.8712 15.0646 15.5283C18.4462 15.1787 22 13.9902 22 8.53718C21.9997 7.14278 21.4214 5.80187 20.3846 4.79195C20.8755 3.57202 20.8408 2.22358 20.2877 1.02676C20.2877 1.02676 19.0169 0.677205 16.0769 2.50487C13.6086 1.88449 11.0068 1.88449 8.53846 2.50487C5.59846 0.677205 4.32769 1.02676 4.32769 1.02676C3.77456 2.22358 3.73985 3.57202 4.23077 4.79195C3.18629 5.80936 2.60733 7.16239 2.61538 8.56714C2.61538 13.9802 6.16923 15.1687 9.55077 15.5582C9.19646 15.8978 8.92321 16.3027 8.74879 16.7466C8.57438 17.1906 8.50272 17.6636 8.53846 18.1349V22" stroke="#101C36" stroke-width="1.5" stroke-linecap="round" stroke-linejoin="round"/>
</svg>
