<svg width="22" height="22" viewBox="0 0 22 22" fill="none" xmlns="http://www.w3.org/2000/svg">
<path d="M7 9.5V9H6.5H6H5H4.5V9.5V16V16.5H5H6.5H7V16V12V9.5Z" stroke="black"/>
<circle cx="5.75" cy="5.75" r="1.25" stroke="black"/>
<rect x="0.75" y="0.75" width="20.5" height="20.5" stroke="#170D04" stroke-width="1.5"/>
<path d="M17 16.5H17.5V16V11.8398C17.5 10.9209 17.2187 10.1525 16.5613 9.65975C15.9582 9.20395 15.1913 9 14.3072 9C13.9563 9 13.6133 9.03587 13.2788 9.10836L13.2788 9.10836L13.2772 9.1087C12.9389 9.18315 12.6231 9.30063 12.3329 9.46339L12.3329 9.46337L12.3294 9.46536C12.2516 9.50985 12.1768 9.55799 12.1052 9.60975L12.0537 9.45856L11.9383 9.11984H11.5804H10H9.5V9.61984V16V16.5H10H12.0688H12.5688V16V12.9982C12.5688 12.3613 12.6788 11.9503 12.8362 11.7035C12.9362 11.5468 13.1605 11.3924 13.7103 11.3924C14.0432 11.3924 14.1829 11.4822 14.2495 11.5617L14.2495 11.5617L14.2532 11.566C14.344 11.6719 14.4312 11.8793 14.4312 12.2735V16V16.5H14.9312H17Z" stroke="black"/>
</svg>
